<?xml version="1.0" standalone="no"?>
<!DOCTYPE svg PUBLIC "-//W3C//DTD SVG 20010904//EN"
 "http://www.w3.org/TR/2001/REC-SVG-20010904/DTD/svg10.dtd">
<svg version="1.0" xmlns="http://www.w3.org/2000/svg"
 width="500.000000pt" height="500.000000pt" viewBox="0 0 500.000000 500.000000"
 preserveAspectRatio="xMidYMid meet">

<g transform="translate(0.000000,500.000000) scale(0.100000,-0.100000)"
fill="#000000" stroke="none">
<path d="M1283 4043 c-14 -36 2 -47 86 -60 96 -15 134 -37 153 -91 10 -30 13
-219 13 -952 l0 -915 -25 -50 c-29 -59 -67 -81 -165 -97 -61 -10 -65 -13 -65
-37 l0 -26 310 0 310 0 0 26 c0 24 -4 26 -77 37 -89 14 -150 45 -175 88 -10
17 -23 64 -28 105 -11 87 -14 1769 -2 1768 4 0 102 -148 219 -329 l212 -329
-34 -57 c-87 -144 -129 -328 -128 -559 1 -313 75 -531 241 -707 163 -172 365
-254 654 -265 214 -8 291 10 522 124 71 34 139 63 152 63 32 0 60 -33 74 -88
7 -26 14 -53 16 -60 2 -7 14 -12 26 -10 l23 3 5 355 c3 195 9 363 14 373 10
21 57 47 86 47 16 0 20 6 20 29 l0 30 -272 -6 c-150 -3 -308 -3 -350 1 l-78 8
0 534 0 535 38 -7 c67 -11 198 -81 260 -139 95 -88 156 -231 180 -420 6 -56 9
-60 35 -63 16 -2 29 2 31 10 3 7 6 158 9 336 l4 322 -28 0 c-29 0 -32 -5 -44
-75 -9 -52 -30 -85 -57 -85 -11 0 -55 22 -97 49 -109 69 -173 100 -255 121
l-71 18 0 108 c1 126 16 192 54 228 26 25 121 56 173 56 25 0 28 4 28 33 l0
32 -310 0 -310 0 0 -31 0 -30 78 -11 c95 -12 145 -35 172 -77 22 -36 39 -138
40 -232 l0 -61 -117 -7 c-222 -13 -390 -67 -535 -171 l-46 -34 -212 327 -212
327 -270 0 c-200 0 -272 -3 -275 -12z m1690 -513 l-23 -9 0 -531 0 -530 -34 0
c-19 0 -36 -5 -38 -10 -2 -6 -84 116 -183 269 -99 154 -183 280 -186 280 -14
2 -41 -182 -45 -314 l-5 -140 243 -375 c244 -375 244 -375 281 -378 l37 -3 0
300 c0 166 2 301 5 301 3 0 24 -9 46 -21 30 -15 46 -33 62 -67 21 -44 22 -62
22 -292 0 -239 -1 -246 -23 -277 -72 -102 -300 -120 -454 -36 -148 81 -249
283 -289 583 -17 126 -17 472 -1 575 42 256 108 413 229 545 61 66 130 106
216 125 73 16 176 19 140 5z m-23 -1160 c0 -16 -2 -30 -4 -30 -3 0 -14 14 -26
30 l-21 30 25 0 c22 0 26 -4 26 -30z"/>
<path d="M898 1323 c8 -3 12 -37 12 -118 0 -81 -4 -115 -12 -118 -7 -3 7 -5
32 -5 25 0 39 2 33 5 -8 3 -13 25 -13 59 0 54 0 55 28 52 23 -2 29 -10 40 -48
8 -25 15 -51 18 -57 2 -9 24 -13 64 -13 58 0 59 1 43 18 -13 13 -20 15 -25 6
-4 -6 -17 -11 -29 -10 -17 1 -25 11 -35 44 -7 24 -21 50 -31 57 -16 13 -16 14
-2 15 19 0 34 16 43 47 5 17 1 29 -18 48 -22 22 -33 25 -93 24 -37 0 -62 -3
-55 -6z m120 -15 c7 -7 12 -26 12 -43 0 -38 -16 -55 -52 -55 -27 0 -28 1 -28
55 0 54 1 55 28 55 15 0 33 -5 40 -12z"/>
<path d="M1197 1313 c-2 -10 -8 -27 -12 -38 -5 -14 -4 -16 3 -7 7 10 13 3 26
-27 9 -23 16 -46 16 -51 0 -15 -70 -12 -70 3 -1 6 -7 -3 -16 -22 -8 -19 -12
-36 -10 -38 2 -3 7 5 11 17 6 18 13 21 53 18 43 -3 47 -5 56 -36 7 -26 6 -36
-5 -43 -9 -6 0 -9 29 -9 42 0 42 0 28 23 -8 12 -31 65 -51 117 -40 104 -50
120 -58 93z"/>
<path d="M1362 1307 c13 -14 41 -71 62 -126 22 -56 43 -98 47 -94 10 11 23 60
13 50 -4 -4 -24 37 -44 90 -35 94 -38 98 -69 101 l-31 3 22 -24z"/>
<path d="M1547 1313 c-2 -10 -8 -27 -12 -38 -5 -16 -5 -17 4 -5 8 11 11 -10
11 -82 0 -68 -4 -98 -12 -101 -7 -3 7 -5 32 -5 25 0 39 2 33 5 -9 3 -13 37
-13 118 0 81 4 115 13 118 6 3 -2 6 -19 6 -22 1 -33 -4 -37 -16z"/>
<path d="M1672 1318 c-27 -34 -14 -87 29 -112 67 -40 91 -92 52 -115 -15 -9
-16 -10 -2 -11 22 0 49 32 49 59 0 35 -16 57 -65 85 -52 31 -69 71 -40 93 16
11 16 13 3 13 -8 0 -20 -6 -26 -12z"/>
<path d="M1754 1316 c8 -6 20 -22 25 -36 9 -24 10 -23 10 10 1 31 -2 35 -25
36 -21 2 -22 0 -10 -10z"/>
<path d="M1848 1323 c8 -3 12 -37 12 -118 0 -81 -4 -115 -12 -118 -7 -3 29 -6
80 -6 l92 -1 0 38 -1 37 -14 -32 c-13 -30 -18 -33 -60 -33 l-45 0 0 55 c0 49
2 55 20 55 12 0 24 -10 30 -22 7 -18 9 -13 9 27 0 40 -2 45 -9 28 -6 -13 -18
-23 -30 -23 -18 0 -20 6 -20 55 l0 55 44 0 c39 0 45 -3 54 -27 l10 -28 1 33 1
32 -87 -1 c-49 0 -82 -3 -75 -6z"/>
<path d="M2074 1305 c-24 -37 -11 -67 48 -111 56 -42 69 -71 43 -98 -13 -13
-14 -16 -2 -16 21 0 47 33 47 61 0 32 -14 49 -72 88 -52 34 -64 71 -30 90 16
10 16 10 0 11 -10 0 -25 -11 -34 -25z"/>
<path d="M2182 1321 c-12 -7 -11 -13 2 -37 l15 -29 1 38 c0 20 -1 37 -2 37 -2
0 -9 -4 -16 -9z"/>
<path d="M2343 1319 c14 -8 17 -25 17 -114 0 -89 -3 -106 -17 -114 -13 -8 7
-10 75 -11 l92 0 -1 38 c-1 21 -4 28 -6 15 -6 -32 -27 -45 -70 -41 l-38 3 -3
105 c-2 90 0 107 15 117 14 11 10 13 -33 13 -38 -1 -45 -3 -31 -11z"/>
<path d="M2553 1319 c14 -8 17 -25 17 -114 0 -89 -3 -106 -17 -114 -13 -8 7
-10 75 -11 l92 0 -1 38 c-1 21 -4 28 -6 15 -6 -32 -27 -45 -70 -41 l-38 3 -3
105 c-2 90 0 107 15 117 14 11 10 13 -33 13 -38 -1 -45 -3 -31 -11z"/>
<path d="M2829 1304 c-5 -15 -7 -29 -4 -32 3 -3 5 -1 5 4 1 7 40 -85 40 -93 0
-2 -18 -3 -40 -3 -33 0 -38 3 -34 18 5 14 4 15 -5 2 -18 -25 -13 -30 37 -30
46 0 49 -1 61 -36 11 -30 11 -38 0 -45 -9 -6 2 -8 31 -8 25 0 40 3 33 5 -7 3
-33 59 -59 125 -25 65 -48 119 -50 119 -3 0 -9 -12 -15 -26z"/>
<path d="M2983 1320 c14 -9 17 -27 17 -115 0 -89 -3 -106 -17 -114 -14 -8 -10
-10 22 -10 22 1 32 3 23 6 -16 4 -18 17 -17 106 l0 102 44 -110 43 -110 16 37
c18 41 21 61 6 38 -12 -19 -11 -20 -51 85 -34 88 -35 90 -69 93 -29 2 -32 0
-17 -8z"/>
<path d="M3180 1311 c-13 -25 -13 -34 0 -26 6 4 10 -28 10 -89 0 -80 -3 -97
-17 -105 -14 -8 -6 -10 32 -10 28 1 42 3 33 6 -16 4 -18 18 -18 118 0 100 2
114 18 118 9 3 3 5 -15 6 -22 1 -35 -5 -43 -18z"/>
<path d="M3327 1309 c-56 -43 -60 -148 -7 -201 35 -35 63 -38 30 -3 -17 18
-25 40 -28 79 -5 67 2 100 28 126 26 26 10 26 -23 -1z"/>
<path d="M3423 1319 c60 -35 61 -192 0 -228 -17 -10 -17 -10 0 -11 49 -1 93
93 77 165 -9 42 -49 85 -78 85 -16 -1 -16 -1 1 -11z"/>
<path d="M3566 1314 c-34 -33 -15 -82 45 -120 54 -33 69 -67 43 -95 -19 -21
-19 -21 1 -18 10 2 26 16 35 32 13 24 13 30 0 54 -8 14 -35 41 -60 58 -47 33
-61 65 -40 91 17 20 -4 18 -24 -2z"/>
<path d="M3656 1309 c8 -8 14 -22 14 -30 0 -12 2 -11 10 1 17 27 11 45 -14 45
-22 0 -23 -2 -10 -16z"/>
<path d="M3817 1313 c-2 -10 -8 -27 -12 -38 -5 -14 -4 -16 3 -7 7 10 13 3 26
-27 9 -23 16 -46 16 -51 0 -15 -70 -12 -70 3 -1 6 -7 -3 -16 -22 -8 -19 -12
-36 -10 -38 2 -3 7 5 11 17 6 18 13 21 53 18 43 -3 47 -5 56 -36 7 -26 6 -36
-5 -43 -9 -6 0 -9 29 -9 42 0 42 0 28 23 -8 12 -31 65 -51 117 -40 104 -50
120 -58 93z"/>
<path d="M3982 1318 c-27 -34 -14 -87 29 -112 67 -40 91 -92 52 -115 -15 -9
-16 -10 -2 -11 22 0 49 32 49 59 0 35 -16 57 -65 85 -52 31 -69 71 -40 93 16
11 16 13 3 13 -8 0 -20 -6 -26 -12z"/>
<path d="M4064 1316 c8 -6 20 -22 25 -36 9 -24 10 -23 10 10 1 31 -2 35 -25
36 -21 2 -22 0 -10 -10z"/>
<path d="M1166 1235 c-9 -26 -7 -32 5 -12 6 10 9 21 6 23 -2 3 -7 -2 -11 -11z"/>
<path d="M3786 1235 c-9 -26 -7 -32 5 -12 6 10 9 21 6 23 -2 3 -7 -2 -11 -11z"/>
<path d="M3146 1225 c-9 -26 -7 -32 5 -12 6 10 9 21 6 23 -2 3 -7 -2 -11 -11z"/>
<path d="M1506 1205 c-9 -26 -7 -32 5 -12 6 10 9 21 6 23 -2 3 -7 -2 -11 -11z"/>
<path d="M1651 1125 c-1 -38 1 -40 30 -41 24 -1 28 1 15 8 -9 5 -23 24 -30 41
l-14 32 -1 -40z"/>
<path d="M2061 1125 c-1 -36 2 -40 25 -41 23 -2 24 0 10 15 -8 9 -19 28 -25
41 -9 23 -10 22 -10 -15z"/>
<path d="M2764 1138 c-3 -13 -13 -31 -22 -40 -14 -17 -12 -18 24 -17 21 1 31
3 20 6 -15 4 -17 11 -13 39 7 39 2 45 -9 12z"/>
<path d="M3551 1125 c-1 -36 2 -40 25 -41 21 -2 23 0 9 10 -8 6 -19 25 -24 41
-9 30 -9 30 -10 -10z"/>
<path d="M3961 1125 c-1 -38 1 -40 30 -41 24 -1 28 1 15 8 -9 5 -23 24 -30 41
l-14 32 -1 -40z"/>
<path d="M3732 1100 c-11 -18 -9 -20 20 -20 23 0 29 3 19 9 -7 5 -16 13 -20
19 -4 7 -11 4 -19 -8z"/>
<path d="M1352 1095 c-11 -13 -8 -15 18 -15 28 0 30 2 16 15 -18 18 -18 18
-34 0z"/>
<path d="M1760 775 l0 -55 34 0 c35 0 66 27 66 57 0 23 -39 53 -70 53 -30 0
-30 -1 -30 -55z m72 28 c10 -9 18 -22 18 -29 0 -21 -30 -44 -56 -44 -22 0 -24
4 -24 45 0 40 3 45 22 45 12 0 30 -7 40 -17z"/>
<path d="M1950 775 l0 -55 43 2 42 1 -37 4 c-29 3 -38 9 -38 23 0 14 9 20 33
23 l32 4 -33 1 c-26 2 -33 6 -30 19 2 10 16 21 33 24 29 6 29 7 -7 8 l-38 1 0
-55z"/>
<path d="M2111 827 c-1 -13 41 -107 48 -107 8 1 52 102 47 107 -2 3 -14 -17
-26 -44 l-22 -48 -23 50 c-13 28 -24 46 -24 42z"/>
<path d="M2297 823 c-4 -3 -7 -28 -7 -55 l0 -48 43 2 c36 1 38 2 10 5 -43 6
-47 40 -5 46 l27 4 -27 2 c-21 1 -28 6 -28 20 0 15 8 21 33 24 l32 4 -36 1
c-20 1 -39 -1 -42 -5z"/>
<path d="M2630 810 c-24 -24 -25 -38 -4 -68 28 -41 94 -22 94 28 0 55 -52 78
-90 40z m61 0 c23 -13 25 -52 4 -70 -19 -15 -61 -6 -69 16 -7 18 18 64 35 64
6 0 19 -5 30 -10z"/>
<path d="M2821 773 c1 -32 3 -51 6 -42 2 8 18 19 36 25 56 16 41 74 -20 74
-21 0 -23 -4 -22 -57z m53 41 c35 -13 12 -54 -30 -54 -9 0 -14 11 -14 30 0 30
11 37 44 24z"/>
<path d="M3000 775 l0 -55 38 2 c36 1 36 1 5 5 -43 6 -47 40 -5 46 l27 4 -27
2 c-21 1 -28 6 -28 20 0 15 8 21 33 24 31 4 31 4 -5 5 l-38 2 0 -55z"/>
<path d="M3171 773 c1 -32 3 -50 6 -40 2 9 12 17 20 17 9 0 26 -8 37 -17 20
-17 20 -17 7 0 -11 14 -11 21 -3 29 29 29 1 68 -47 68 -19 0 -21 -6 -20 -57z
m59 37 c20 -13 2 -44 -29 -48 -18 -3 -21 2 -21 27 0 33 19 41 50 21z"/>
<path d="M2460 770 l0 -50 43 2 c36 1 38 2 10 5 -32 4 -33 6 -33 49 0 24 -4
44 -10 44 -5 0 -10 -22 -10 -50z"/>
</g>
</svg>
